<mxfile host="app.diagrams.net" modified="2024-02-09T16:10:36.895Z" agent="Mozilla/5.0 (Windows NT 10.0; Win64; x64) AppleWebKit/537.36 (KHTML, like Gecko) Chrome/121.0.0.0 Safari/537.36" etag="NFHNfrmJ2bLtMPdaGKfk" version="23.1.2" type="device">
  <diagram name="Page-1" id="9wZbfzE91RiuX09paZ1g">
    <mxGraphModel dx="1434" dy="780" grid="1" gridSize="10" guides="1" tooltips="1" connect="1" arrows="1" fold="1" page="1" pageScale="1" pageWidth="850" pageHeight="1100" math="0" shadow="0">
      <root>
        <mxCell id="0" />
        <mxCell id="1" parent="0" />
        <mxCell id="9gv9i3MY-Y1GRfxskWFB-1" value="&lt;br&gt;&lt;br&gt;&lt;br&gt;&lt;br&gt;Overall studies searched (n=2083)" style="rounded=0;whiteSpace=wrap;html=1;" vertex="1" parent="1">
          <mxGeometry x="130" y="20" width="590" height="80" as="geometry" />
        </mxCell>
        <mxCell id="9gv9i3MY-Y1GRfxskWFB-2" value="ACM Digital Library&lt;br&gt;(n=1052)" style="text;html=1;strokeColor=none;fillColor=none;align=center;verticalAlign=middle;whiteSpace=wrap;rounded=0;" vertex="1" parent="1">
          <mxGeometry x="140" y="30" width="100" height="30" as="geometry" />
        </mxCell>
        <mxCell id="9gv9i3MY-Y1GRfxskWFB-3" value="Wiley Online Library&lt;br&gt;(n=0)" style="text;html=1;strokeColor=none;fillColor=none;align=center;verticalAlign=middle;whiteSpace=wrap;rounded=0;" vertex="1" parent="1">
          <mxGeometry x="230" y="30" width="100" height="30" as="geometry" />
        </mxCell>
        <mxCell id="9gv9i3MY-Y1GRfxskWFB-4" value="SpringerLink&lt;br&gt;(n=1020)" style="text;html=1;strokeColor=none;fillColor=none;align=center;verticalAlign=middle;whiteSpace=wrap;rounded=0;" vertex="1" parent="1">
          <mxGeometry x="330" y="30" width="100" height="30" as="geometry" />
        </mxCell>
        <mxCell id="9gv9i3MY-Y1GRfxskWFB-5" value="ScienceDirect&lt;br&gt;(n=0)" style="text;html=1;strokeColor=none;fillColor=none;align=center;verticalAlign=middle;whiteSpace=wrap;rounded=0;" vertex="1" parent="1">
          <mxGeometry x="440" y="30" width="100" height="30" as="geometry" />
        </mxCell>
        <mxCell id="9gv9i3MY-Y1GRfxskWFB-6" value="IEEExplore&lt;br&gt;(n=1)" style="text;html=1;strokeColor=none;fillColor=none;align=center;verticalAlign=middle;whiteSpace=wrap;rounded=0;" vertex="1" parent="1">
          <mxGeometry x="540" y="30" width="100" height="30" as="geometry" />
        </mxCell>
        <mxCell id="9gv9i3MY-Y1GRfxskWFB-7" value="SciScope&lt;br&gt;(n=10)" style="text;html=1;strokeColor=none;fillColor=none;align=center;verticalAlign=middle;whiteSpace=wrap;rounded=0;" vertex="1" parent="1">
          <mxGeometry x="630" y="30" width="100" height="30" as="geometry" />
        </mxCell>
        <mxCell id="9gv9i3MY-Y1GRfxskWFB-8" value="IDENTIFICATION" style="rounded=0;whiteSpace=wrap;html=1;rotation=-90;" vertex="1" parent="1">
          <mxGeometry x="-10" y="80" width="180" height="60" as="geometry" />
        </mxCell>
        <mxCell id="9gv9i3MY-Y1GRfxskWFB-9" value="SCREENING" style="rounded=0;whiteSpace=wrap;html=1;rotation=-90;" vertex="1" parent="1">
          <mxGeometry x="17.5" y="252.5" width="125" height="60" as="geometry" />
        </mxCell>
        <mxCell id="9gv9i3MY-Y1GRfxskWFB-10" value="ELIGIBILITY" style="rounded=0;whiteSpace=wrap;html=1;rotation=-90;" vertex="1" parent="1">
          <mxGeometry x="1.88" y="408.13" width="156.25" height="60" as="geometry" />
        </mxCell>
        <mxCell id="9gv9i3MY-Y1GRfxskWFB-11" value="INCLUDE" style="rounded=0;whiteSpace=wrap;html=1;rotation=-90;" vertex="1" parent="1">
          <mxGeometry x="29.57" y="579.57" width="101.87" height="60" as="geometry" />
        </mxCell>
        <mxCell id="9gv9i3MY-Y1GRfxskWFB-19" value="" style="edgeStyle=orthogonalEdgeStyle;rounded=0;orthogonalLoop=1;jettySize=auto;html=1;" edge="1" parent="1" source="9gv9i3MY-Y1GRfxskWFB-12" target="9gv9i3MY-Y1GRfxskWFB-13">
          <mxGeometry relative="1" as="geometry" />
        </mxCell>
        <mxCell id="9gv9i3MY-Y1GRfxskWFB-22" value="" style="edgeStyle=orthogonalEdgeStyle;rounded=0;orthogonalLoop=1;jettySize=auto;html=1;" edge="1" parent="1" source="9gv9i3MY-Y1GRfxskWFB-12" target="9gv9i3MY-Y1GRfxskWFB-14">
          <mxGeometry relative="1" as="geometry" />
        </mxCell>
        <mxCell id="9gv9i3MY-Y1GRfxskWFB-12" value="Articles to be screened&lt;br&gt;(n=15)" style="rounded=0;whiteSpace=wrap;html=1;" vertex="1" parent="1">
          <mxGeometry x="155" y="150" width="250" height="100" as="geometry" />
        </mxCell>
        <mxCell id="9gv9i3MY-Y1GRfxskWFB-13" value="Exclusion by:&lt;br&gt;-Duplicated articles&lt;br&gt;-Not open accessed&lt;br&gt;-Title&#39;s not related&lt;br&gt;(n=2068)" style="rounded=0;whiteSpace=wrap;html=1;" vertex="1" parent="1">
          <mxGeometry x="460" y="150" width="250" height="100" as="geometry" />
        </mxCell>
        <mxCell id="9gv9i3MY-Y1GRfxskWFB-20" value="" style="edgeStyle=orthogonalEdgeStyle;rounded=0;orthogonalLoop=1;jettySize=auto;html=1;" edge="1" parent="1" source="9gv9i3MY-Y1GRfxskWFB-14" target="9gv9i3MY-Y1GRfxskWFB-15">
          <mxGeometry relative="1" as="geometry" />
        </mxCell>
        <mxCell id="9gv9i3MY-Y1GRfxskWFB-23" value="" style="edgeStyle=orthogonalEdgeStyle;rounded=0;orthogonalLoop=1;jettySize=auto;html=1;" edge="1" parent="1" source="9gv9i3MY-Y1GRfxskWFB-14" target="9gv9i3MY-Y1GRfxskWFB-16">
          <mxGeometry relative="1" as="geometry" />
        </mxCell>
        <mxCell id="9gv9i3MY-Y1GRfxskWFB-14" value="Articles to be assessed for eligibility&lt;br&gt;(n=15)" style="rounded=0;whiteSpace=wrap;html=1;" vertex="1" parent="1">
          <mxGeometry x="155" y="280" width="250" height="100" as="geometry" />
        </mxCell>
        <mxCell id="9gv9i3MY-Y1GRfxskWFB-15" value="Exclusion by Screening Criteria:&lt;br&gt;-Abstract not related to the topic&lt;br&gt;-Non-English paper&lt;br&gt;-Not in February 2019 to February 2024&lt;br&gt;(n=0)" style="rounded=0;whiteSpace=wrap;html=1;" vertex="1" parent="1">
          <mxGeometry x="460" y="280" width="250" height="100" as="geometry" />
        </mxCell>
        <mxCell id="9gv9i3MY-Y1GRfxskWFB-21" value="" style="edgeStyle=orthogonalEdgeStyle;rounded=0;orthogonalLoop=1;jettySize=auto;html=1;" edge="1" parent="1" source="9gv9i3MY-Y1GRfxskWFB-16" target="9gv9i3MY-Y1GRfxskWFB-17">
          <mxGeometry relative="1" as="geometry" />
        </mxCell>
        <mxCell id="9gv9i3MY-Y1GRfxskWFB-24" value="" style="edgeStyle=orthogonalEdgeStyle;rounded=0;orthogonalLoop=1;jettySize=auto;html=1;" edge="1" parent="1" source="9gv9i3MY-Y1GRfxskWFB-16" target="9gv9i3MY-Y1GRfxskWFB-18">
          <mxGeometry relative="1" as="geometry" />
        </mxCell>
        <mxCell id="9gv9i3MY-Y1GRfxskWFB-16" value="Articles assessed for Quality Assessment&lt;br&gt;(n=4)" style="rounded=0;whiteSpace=wrap;html=1;" vertex="1" parent="1">
          <mxGeometry x="155" y="416.25" width="250" height="100" as="geometry" />
        </mxCell>
        <mxCell id="9gv9i3MY-Y1GRfxskWFB-17" value="Exclusion by Quality Assessment Score:&lt;br&gt;- Quality score below 3&lt;br&gt;(n=11)" style="rounded=0;whiteSpace=wrap;html=1;" vertex="1" parent="1">
          <mxGeometry x="460" y="416.25" width="250" height="100" as="geometry" />
        </mxCell>
        <mxCell id="9gv9i3MY-Y1GRfxskWFB-18" value="Articles included as primary studies&lt;br&gt;(n=4)" style="rounded=0;whiteSpace=wrap;html=1;" vertex="1" parent="1">
          <mxGeometry x="155" y="560" width="250" height="100" as="geometry" />
        </mxCell>
        <mxCell id="9gv9i3MY-Y1GRfxskWFB-28" value="" style="edgeStyle=orthogonalEdgeStyle;rounded=0;orthogonalLoop=1;jettySize=auto;html=1;exitX=0.25;exitY=1;exitDx=0;exitDy=0;" edge="1" parent="1" source="9gv9i3MY-Y1GRfxskWFB-1">
          <mxGeometry relative="1" as="geometry">
            <mxPoint x="279.5" y="120" as="sourcePoint" />
            <mxPoint x="279.5" y="150" as="targetPoint" />
            <Array as="points">
              <mxPoint x="280" y="100" />
              <mxPoint x="280" y="125" />
            </Array>
          </mxGeometry>
        </mxCell>
      </root>
    </mxGraphModel>
  </diagram>
</mxfile>
